<svg id="visual" viewBox="0 0 900 600" width="900" height="600" xmlns="http://www.w3.org/2000/svg" xmlns:xlink="http://www.w3.org/1999/xlink" version="1.1"><rect x="0" y="0" width="900" height="600" fill="#180a0a"></rect><path d="M0 194L13.7 189C27.3 184 54.7 174 82 166.7C109.3 159.3 136.7 154.7 163.8 156.8C191 159 218 168 245.2 171.7C272.3 175.3 299.7 173.7 327 180.8C354.3 188 381.7 204 409 203.8C436.3 203.7 463.7 187.3 491 185.2C518.3 183 545.7 195 573 190.8C600.3 186.7 627.7 166.3 654.8 154.5C682 142.7 709 139.3 736.2 148.8C763.3 158.3 790.7 180.7 818 182.3C845.3 184 872.7 165 886.3 155.5L900 146L900 0L886.3 0C872.7 0 845.3 0 818 0C790.7 0 763.3 0 736.2 0C709 0 682 0 654.8 0C627.7 0 600.3 0 573 0C545.7 0 518.3 0 491 0C463.7 0 436.3 0 409 0C381.7 0 354.3 0 327 0C299.7 0 272.3 0 245.2 0C218 0 191 0 163.8 0C136.7 0 109.3 0 82 0C54.7 0 27.3 0 13.7 0L0 0Z" fill="#711a75" stroke-linecap="round" stroke-linejoin="miter"></path></svg>